<?xml version="1.0" encoding="UTF-8" standalone="no"?><!DOCTYPE svg PUBLIC "-//W3C//DTD SVG 1.1//EN" "http://www.w3.org/Graphics/SVG/1.1/DTD/svg11.dtd"><svg width="100%" height="100%" viewBox="0 0 27 24" version="1.1" xmlns="http://www.w3.org/2000/svg" xmlns:xlink="http://www.w3.org/1999/xlink" xml:space="preserve" xmlns:serif="http://www.serif.com/" style="fill-rule:evenodd;clip-rule:evenodd;stroke-linejoin:round;stroke-miterlimit:2;"><path d="M4.786,23.559l0.01,-0.01l-2.123,-4.569l0.218,-0.218l2.212,4.856l-0.252,0.252l-4.851,-2.217l0.228,-0.228l4.558,2.134Z" style="fill:#ddd;fill-rule:nonzero;"/><path d="M3.564,19.109l-0.51,-0.51l0.188,-0.188l0.51,0.51l-0.188,0.188Zm3.024,3.024l-2.544,-2.544l0.188,-0.188l2.544,2.544l-0.188,0.188Z" style="fill:#ddd;fill-rule:nonzero;"/><path d="M6.618,20.411c0.125,0.112 0.256,0.19 0.393,0.235c0.137,0.044 0.275,0.062 0.414,0.052c0.138,-0.01 0.274,-0.048 0.406,-0.114c0.131,-0.066 0.255,-0.157 0.371,-0.272c0.082,-0.083 0.163,-0.179 0.242,-0.288c0.079,-0.108 0.14,-0.223 0.181,-0.344c0.041,-0.12 0.053,-0.242 0.035,-0.366c-0.019,-0.124 -0.082,-0.24 -0.191,-0.349c-0.142,-0.142 -0.292,-0.206 -0.45,-0.193c-0.159,0.013 -0.323,0.065 -0.493,0.156c-0.17,0.091 -0.342,0.199 -0.517,0.324c-0.175,0.126 -0.352,0.229 -0.532,0.31c-0.18,0.081 -0.358,0.118 -0.535,0.114c-0.176,-0.005 -0.352,-0.095 -0.527,-0.27c-0.125,-0.126 -0.202,-0.258 -0.23,-0.399c-0.028,-0.14 -0.023,-0.279 0.015,-0.415c0.038,-0.137 0.1,-0.271 0.188,-0.401c0.087,-0.131 0.185,-0.25 0.294,-0.359c0.132,-0.132 0.271,-0.241 0.416,-0.327c0.145,-0.086 0.293,-0.138 0.443,-0.156c0.15,-0.018 0.3,0 0.451,0.055c0.15,0.054 0.297,0.154 0.443,0.299l-0.189,0.188c-0.115,-0.115 -0.233,-0.195 -0.353,-0.24c-0.121,-0.044 -0.241,-0.059 -0.359,-0.042c-0.119,0.016 -0.237,0.059 -0.354,0.126c-0.117,0.068 -0.229,0.154 -0.334,0.26c-0.086,0.086 -0.165,0.181 -0.235,0.285c-0.071,0.104 -0.122,0.21 -0.151,0.319c-0.03,0.109 -0.036,0.217 -0.018,0.324c0.018,0.107 0.072,0.206 0.161,0.295c0.102,0.102 0.21,0.16 0.322,0.173c0.112,0.013 0.228,-0.002 0.346,-0.045c0.119,-0.043 0.24,-0.103 0.364,-0.18c0.124,-0.078 0.248,-0.156 0.374,-0.235c0.148,-0.103 0.294,-0.193 0.435,-0.273c0.142,-0.079 0.281,-0.132 0.416,-0.158c0.135,-0.026 0.269,-0.02 0.401,0.02c0.132,0.039 0.264,0.125 0.396,0.257c0.139,0.139 0.221,0.284 0.248,0.436c0.026,0.152 0.019,0.302 -0.023,0.453c-0.041,0.15 -0.109,0.294 -0.205,0.433c-0.096,0.138 -0.2,0.264 -0.312,0.376c-0.145,0.145 -0.299,0.261 -0.46,0.346c-0.162,0.086 -0.328,0.136 -0.498,0.151c-0.17,0.015 -0.337,-0.007 -0.502,-0.066c-0.165,-0.06 -0.323,-0.162 -0.475,-0.307l0.188,-0.188Z" style="fill:#ddd;fill-rule:nonzero;"/><path d="M8.311,15.649l-0.555,0.554l1.777,1.777c0.103,0.103 0.195,0.172 0.277,0.208c0.083,0.036 0.164,0.046 0.243,0.03c0.079,-0.017 0.156,-0.055 0.23,-0.117c0.074,-0.061 0.154,-0.137 0.24,-0.23l0.164,0.164c-0.09,0.102 -0.184,0.194 -0.283,0.277c-0.099,0.082 -0.203,0.138 -0.314,0.166c-0.11,0.028 -0.228,0.021 -0.351,-0.02c-0.124,-0.041 -0.255,-0.138 -0.394,-0.29l-1.777,-1.777l-0.47,0.471l-0.163,-0.164l0.47,-0.47l-0.792,-0.792l0.188,-0.188l0.792,0.792l0.554,-0.554l0.164,0.163Z" style="fill:#ddd;fill-rule:nonzero;"/><path d="M12.221,15.491l-0.01,0.009c0.046,0.106 0.075,0.221 0.087,0.344c0.011,0.124 0.003,0.253 -0.025,0.386c-0.028,0.134 -0.078,0.267 -0.151,0.399c-0.073,0.132 -0.17,0.259 -0.292,0.381c-0.271,0.271 -0.539,0.422 -0.804,0.453c-0.266,0.031 -0.521,-0.075 -0.765,-0.319c-0.149,-0.149 -0.24,-0.3 -0.275,-0.453c-0.035,-0.154 -0.034,-0.303 0.003,-0.448c0.036,-0.145 0.098,-0.285 0.185,-0.418c0.088,-0.134 0.178,-0.257 0.27,-0.369l0.267,-0.317c0.126,-0.145 0.216,-0.267 0.272,-0.366c0.057,-0.099 0.085,-0.187 0.087,-0.265c0.002,-0.078 -0.022,-0.151 -0.072,-0.22c-0.049,-0.07 -0.118,-0.149 -0.208,-0.238c-0.069,-0.069 -0.146,-0.12 -0.232,-0.153c-0.086,-0.033 -0.18,-0.045 -0.282,-0.035c-0.103,0.01 -0.212,0.046 -0.327,0.109c-0.116,0.063 -0.238,0.158 -0.366,0.287c-0.228,0.228 -0.356,0.468 -0.384,0.72c-0.028,0.253 0.065,0.499 0.28,0.74l-0.188,0.188c-0.268,-0.293 -0.388,-0.594 -0.362,-0.901c0.027,-0.306 0.193,-0.613 0.5,-0.92c0.307,-0.307 0.591,-0.47 0.852,-0.49c0.26,-0.02 0.488,0.067 0.683,0.262l1.48,1.48c0.036,0.036 0.073,0.072 0.111,0.106c0.038,0.035 0.077,0.062 0.116,0.082c0.04,0.02 0.08,0.027 0.122,0.022c0.041,-0.005 0.083,-0.028 0.126,-0.071c0.033,-0.033 0.074,-0.084 0.124,-0.154l0.158,0.159c-0.036,0.062 -0.081,0.12 -0.134,0.173c-0.076,0.076 -0.146,0.126 -0.21,0.151c-0.064,0.025 -0.125,0.032 -0.181,0.022c-0.056,-0.01 -0.11,-0.033 -0.163,-0.069c-0.053,-0.037 -0.106,-0.081 -0.158,-0.134l-0.134,-0.133Zm-0.941,-0.941c0.01,0.102 -0.022,0.21 -0.096,0.324c-0.074,0.114 -0.164,0.234 -0.27,0.359l-0.287,0.347c-0.082,0.102 -0.161,0.208 -0.235,0.319c-0.074,0.11 -0.127,0.224 -0.158,0.341c-0.032,0.118 -0.033,0.236 -0.005,0.357c0.028,0.12 0.101,0.24 0.22,0.359c0.188,0.188 0.387,0.268 0.596,0.24c0.21,-0.028 0.419,-0.146 0.627,-0.354c0.214,-0.215 0.345,-0.423 0.393,-0.626c0.048,-0.203 0.054,-0.388 0.02,-0.555c-0.035,-0.166 -0.09,-0.306 -0.166,-0.418c-0.076,-0.112 -0.13,-0.185 -0.163,-0.218l-0.476,-0.475Z" style="fill:#ddd;fill-rule:nonzero;"/><path d="M11.389,10.264l1.505,-1.505c0.099,-0.099 0.22,-0.197 0.364,-0.295c0.143,-0.097 0.303,-0.162 0.478,-0.195c0.174,-0.033 0.362,-0.019 0.561,0.042c0.2,0.061 0.405,0.197 0.617,0.408c0.31,0.31 0.453,0.645 0.43,1.005c-0.023,0.36 -0.213,0.718 -0.569,1.074l-1.208,1.208l1.574,1.574l-0.218,0.218l-3.534,-3.534Zm1.99,1.554l1.243,-1.243c0.158,-0.158 0.268,-0.316 0.331,-0.475c0.063,-0.158 0.089,-0.308 0.079,-0.45c-0.01,-0.142 -0.046,-0.274 -0.109,-0.396c-0.062,-0.122 -0.14,-0.23 -0.232,-0.322c-0.066,-0.066 -0.154,-0.134 -0.265,-0.205c-0.111,-0.071 -0.238,-0.119 -0.381,-0.144c-0.144,-0.025 -0.298,-0.012 -0.463,0.037c-0.165,0.05 -0.336,0.164 -0.515,0.342l-1.272,1.272l1.584,1.584Z" style="fill:#ddd;fill-rule:nonzero;"/><path d="M15.923,8.838l0.015,-0.015c-0.059,-0.105 -0.095,-0.225 -0.106,-0.359c-0.012,-0.133 0,-0.27 0.034,-0.41c0.035,-0.141 0.092,-0.279 0.171,-0.414c0.079,-0.135 0.178,-0.259 0.297,-0.371l0.188,0.188c-0.112,0.086 -0.215,0.209 -0.309,0.369c-0.094,0.16 -0.143,0.354 -0.146,0.581c0.003,0.096 0.011,0.184 0.022,0.265c0.012,0.081 0.034,0.161 0.067,0.24c0.033,0.079 0.078,0.16 0.134,0.243c0.056,0.082 0.13,0.173 0.222,0.272l1.391,1.391l-0.188,0.188l-2.544,-2.544l0.188,-0.188l0.564,0.564Z" style="fill:#ddd;fill-rule:nonzero;"/><path d="M17.859,8.368l0.029,0.03c0.149,0.148 0.311,0.27 0.485,0.366c0.175,0.095 0.353,0.156 0.533,0.18c0.179,0.025 0.358,0.009 0.534,-0.049c0.177,-0.058 0.342,-0.164 0.498,-0.319c0.254,-0.254 0.388,-0.522 0.403,-0.805c0.015,-0.282 -0.068,-0.57 -0.25,-0.863l0.188,-0.188c0.241,0.353 0.347,0.702 0.319,1.046c-0.028,0.345 -0.195,0.671 -0.502,0.978c-0.188,0.188 -0.386,0.318 -0.594,0.391c-0.208,0.073 -0.417,0.097 -0.629,0.074c-0.211,-0.023 -0.42,-0.091 -0.626,-0.205c-0.206,-0.114 -0.402,-0.263 -0.586,-0.448c-0.178,-0.178 -0.325,-0.373 -0.441,-0.584c-0.115,-0.211 -0.187,-0.427 -0.215,-0.646c-0.028,-0.22 -0.008,-0.438 0.062,-0.656c0.069,-0.218 0.201,-0.424 0.396,-0.619c0.178,-0.178 0.368,-0.302 0.571,-0.373c0.203,-0.071 0.408,-0.096 0.614,-0.075c0.206,0.022 0.409,0.084 0.607,0.186c0.198,0.102 0.382,0.239 0.554,0.411l0.104,0.114l-2.054,2.054Zm1.702,-2.03c-0.145,-0.132 -0.299,-0.24 -0.462,-0.324c-0.164,-0.084 -0.331,-0.134 -0.503,-0.151c-0.171,-0.016 -0.341,0.003 -0.507,0.057c-0.167,0.055 -0.321,0.153 -0.463,0.295c-0.152,0.151 -0.257,0.314 -0.314,0.487c-0.058,0.173 -0.079,0.347 -0.065,0.52c0.015,0.173 0.064,0.344 0.146,0.512c0.083,0.169 0.185,0.324 0.307,0.466l1.861,-1.862Z" style="fill:#ddd;fill-rule:nonzero;"/><path d="M22.571,6.15l-0.233,0.233l-3.569,-1.52l0.218,-0.217l3.247,1.405l0.01,-0.01l-1.465,-3.187l0.208,-0.208l1.584,3.504Z" style="fill:#ddd;fill-rule:nonzero;"/><path d="M20.819,1.854l-0.51,-0.51l0.188,-0.188l0.51,0.51l-0.188,0.188Zm3.024,3.024l-2.544,-2.544l0.188,-0.188l2.544,2.544l-0.188,0.188Z" style="fill:#ddd;fill-rule:nonzero;"/><path d="M25.813,1.898l-0.01,0.01c0.046,0.106 0.075,0.221 0.087,0.344c0.011,0.124 0.003,0.253 -0.025,0.386c-0.028,0.134 -0.078,0.267 -0.151,0.399c-0.073,0.132 -0.17,0.259 -0.292,0.381c-0.271,0.271 -0.539,0.422 -0.804,0.453c-0.266,0.031 -0.521,-0.075 -0.765,-0.319c-0.149,-0.149 -0.24,-0.3 -0.275,-0.453c-0.035,-0.154 -0.034,-0.303 0.003,-0.448c0.036,-0.145 0.098,-0.285 0.185,-0.418c0.088,-0.134 0.178,-0.257 0.27,-0.369l0.267,-0.317c0.126,-0.145 0.216,-0.267 0.272,-0.366c0.057,-0.099 0.085,-0.187 0.087,-0.265c0.002,-0.078 -0.022,-0.151 -0.072,-0.22c-0.049,-0.07 -0.118,-0.149 -0.208,-0.238c-0.069,-0.069 -0.146,-0.12 -0.232,-0.153c-0.086,-0.033 -0.18,-0.045 -0.282,-0.035c-0.103,0.01 -0.212,0.046 -0.327,0.109c-0.115,0.063 -0.238,0.158 -0.366,0.287c-0.228,0.228 -0.356,0.468 -0.384,0.72c-0.028,0.253 0.065,0.499 0.28,0.74l-0.188,0.188c-0.268,-0.293 -0.388,-0.594 -0.362,-0.901c0.027,-0.306 0.193,-0.613 0.5,-0.92c0.307,-0.307 0.591,-0.47 0.852,-0.49c0.26,-0.02 0.488,0.067 0.683,0.262l1.48,1.48c0.036,0.036 0.073,0.072 0.111,0.106c0.038,0.035 0.077,0.062 0.116,0.082c0.04,0.02 0.08,0.027 0.122,0.022c0.041,-0.005 0.083,-0.028 0.126,-0.071c0.033,-0.033 0.074,-0.085 0.124,-0.154l0.158,0.159c-0.036,0.062 -0.081,0.12 -0.134,0.173c-0.076,0.076 -0.146,0.126 -0.21,0.151c-0.064,0.025 -0.125,0.032 -0.181,0.022c-0.056,-0.01 -0.11,-0.033 -0.163,-0.069c-0.053,-0.037 -0.106,-0.081 -0.158,-0.134l-0.134,-0.134Zm-0.941,-0.94c0.01,0.102 -0.022,0.21 -0.096,0.324c-0.074,0.114 -0.164,0.234 -0.27,0.359l-0.287,0.347c-0.082,0.102 -0.161,0.208 -0.235,0.319c-0.074,0.11 -0.127,0.224 -0.158,0.341c-0.032,0.118 -0.033,0.236 -0.005,0.357c0.028,0.12 0.101,0.24 0.22,0.359c0.188,0.188 0.387,0.268 0.596,0.24c0.21,-0.028 0.419,-0.146 0.627,-0.354c0.214,-0.215 0.345,-0.423 0.393,-0.626c0.048,-0.203 0.054,-0.388 0.02,-0.555c-0.035,-0.166 -0.09,-0.306 -0.166,-0.418c-0.076,-0.112 -0.13,-0.185 -0.163,-0.218l-0.476,-0.475Z" style="fill:#ddd;fill-rule:nonzero;"/></svg>